<?xml version="1.0" encoding="UTF-8" standalone="no"?>
<!-- Generator: Adobe Illustrator 19.0.0, SVG Export Plug-In . SVG Version: 6.00 Build 0)  -->

<svg
   xmlns:dc="http://purl.org/dc/elements/1.1/"
   xmlns:cc="http://creativecommons.org/ns#"
   xmlns:rdf="http://www.w3.org/1999/02/22-rdf-syntax-ns#"
   xmlns:svg="http://www.w3.org/2000/svg"
   xmlns="http://www.w3.org/2000/svg"
   xmlns:sodipodi="http://sodipodi.sourceforge.net/DTD/sodipodi-0.dtd"
   xmlns:inkscape="http://www.inkscape.org/namespaces/inkscape"
   version="1.1"
   id="Capa_1"
   x="0px"
   y="0px"
   viewBox="0 0 60 60"
   style="enable-background:new 0 0 60 60;"
   xml:space="preserve"
   width="512px"
   height="512px"
   inkscape:version="0.91 r13725"
   sodipodi:docname="cloud.svg"><metadata
     id="metadata4250"><rdf:RDF><cc:Work
         rdf:about=""><dc:format>image/svg+xml</dc:format><dc:type
           rdf:resource="http://purl.org/dc/dcmitype/StillImage" /><dc:title></dc:title></cc:Work></rdf:RDF></metadata><defs
     id="defs4248" /><sodipodi:namedview
     pagecolor="#000048"
     bordercolor="#666666"
     borderopacity="1"
     objecttolerance="10"
     gridtolerance="10"
     guidetolerance="10"
     inkscape:pageopacity="0"
     inkscape:pageshadow="2"
     inkscape:window-width="1366"
     inkscape:window-height="716"
     id="namedview4246"
     showgrid="false"
     inkscape:zoom="0.74025241"
     inkscape:cx="179.58209"
     inkscape:cy="160.47761"
     inkscape:window-x="0"
     inkscape:window-y="0"
     inkscape:window-maximized="1"
     inkscape:current-layer="Capa_1" /><path
     d="M 50.976,26.194 C 50.447,17.194 43.028,10 34.085,10 28.655,10 23.397,12.663 20.139,17.008 20.064,16.969 19.985,16.942 19.909,16.906 19.711,16.81 19.51,16.719 19.305,16.637 19.191,16.592 19.077,16.551 18.962,16.511 18.759,16.44 18.553,16.377 18.343,16.32 18.228,16.289 18.114,16.257 17.998,16.231 17.773,16.18 17.543,16.141 17.311,16.106 17.21,16.091 17.111,16.071 17.009,16.06 16.677,16.023 16.341,16 16,16 c -4.963,0 -9,4.037 -9,9 0,0.127 0.008,0.252 0.016,0.377 l 0,0.004 C 2.857,27.649 0,32.399 0,37.154 0,44.237 5.762,50 12.845,50 l 24.508,0 c 0.104,0 0.207,-0.006 0.311,-0.014 l 0.062,-0.008 0.134,0.008 C 37.962,49.994 38.064,50 38.169,50 l 9.803,0 C 54.604,50 60,44.604 60,37.972 60,32.483 56.173,27.56 50.976,26.194 Z"
     id="path4214"
     inkscape:connector-curvature="0"
     style="fill:#ffffff"
     sodipodi:nodetypes="csccccccccssccssscccsssc" /><g
     id="g4216" /><g
     id="g4218" /><g
     id="g4220" /><g
     id="g4222" /><g
     id="g4224" /><g
     id="g4226" /><g
     id="g4228" /><g
     id="g4230" /><g
     id="g4232" /><g
     id="g4234" /><g
     id="g4236" /><g
     id="g4238" /><g
     id="g4240" /><g
     id="g4242" /><g
     id="g4244" /></svg>