<?xml version="1.0" encoding="UTF-8" standalone="no"?>
<!-- Created with Inkscape (http://www.inkscape.org/) -->

<svg
   xmlns:dc="http://purl.org/dc/elements/1.1/"
   xmlns:cc="http://creativecommons.org/ns#"
   xmlns:rdf="http://www.w3.org/1999/02/22-rdf-syntax-ns#"
   xmlns:svg="http://www.w3.org/2000/svg"
   xmlns="http://www.w3.org/2000/svg"
   xmlns:sodipodi="http://sodipodi.sourceforge.net/DTD/sodipodi-0.dtd"
   xmlns:inkscape="http://www.inkscape.org/namespaces/inkscape"
   width="34.342388mm"
   height="13.379297mm"
   viewBox="0 0 121.68563 47.406959"
   id="svg2"
   version="1.1"
   inkscape:version="0.91 r13725"
   sodipodi:docname="fldrppr_logo.svg">
  <defs
     id="defs4" />
  <sodipodi:namedview
     id="base"
     pagecolor="#ffffff"
     bordercolor="#666666"
     borderopacity="1.0"
     inkscape:pageopacity="0.0"
     inkscape:pageshadow="2"
     inkscape:zoom="2.8"
     inkscape:cx="48.948926"
     inkscape:cy="17.458228"
     inkscape:document-units="px"
     inkscape:current-layer="text3381"
     showgrid="false"
     showborder="true"
     fit-margin-top="0"
     fit-margin-left="0"
     fit-margin-right="0"
     fit-margin-bottom="0"
     inkscape:snap-nodes="false"
     inkscape:snap-center="false"
     inkscape:snap-object-midpoints="false"
     inkscape:window-width="1366"
     inkscape:window-height="716"
     inkscape:window-x="0"
     inkscape:window-y="0"
     inkscape:window-maximized="1" />
  <metadata
     id="metadata7">
    <rdf:RDF>
      <cc:Work
         rdf:about="">
        <dc:format>image/svg+xml</dc:format>
        <dc:type
           rdf:resource="http://purl.org/dc/dcmitype/StillImage" />
        <dc:title></dc:title>
      </cc:Work>
    </rdf:RDF>
  </metadata>
  <g
     inkscape:label="Layer 1"
     inkscape:groupmode="layer"
     id="layer1"
     transform="translate(-132.02857,-161.06666)">
    <text
       xml:space="preserve"
       style="font-style:normal;font-weight:normal;font-size:40px;line-height:125%;font-family:sans-serif;letter-spacing:0px;word-spacing:0px;fill:#000000;fill-opacity:1;stroke:none;stroke-width:1px;stroke-linecap:butt;stroke-linejoin:miter;stroke-opacity:1"
       x="-12.121831"
       y="199.79346"
       id="text3336"
       sodipodi:linespacing="125%"><tspan
         sodipodi:role="line"
         id="tspan3338"
         x="-12.121831"
         y="199.79346"></tspan></text>
    <text
       xml:space="preserve"
       style="font-style:normal;font-variant:normal;font-weight:normal;font-stretch:normal;font-size:40px;line-height:125%;font-family:roboto;-inkscape-font-specification:roboto;letter-spacing:0px;word-spacing:0px;fill:#000000;fill-opacity:1;stroke:none;stroke-width:1px;stroke-linecap:butt;stroke-linejoin:miter;stroke-opacity:1"
       x="139.90613"
       y="219.99651"
       id="text3340"
       sodipodi:linespacing="125%"><tspan
         sodipodi:role="line"
         id="tspan3342"
         x="139.90613"
         y="219.99651"></tspan></text>
    <g
       style="font-style:normal;font-weight:normal;font-size:40px;line-height:125%;font-family:sans-serif;letter-spacing:0px;word-spacing:0px;fill:#000000;fill-opacity:1;stroke:none;stroke-width:1px;stroke-linecap:butt;stroke-linejoin:miter;stroke-opacity:1"
       id="text3344">
      <g
         style="font-style:normal;font-weight:normal;font-size:40px;line-height:125%;font-family:sans-serif;letter-spacing:0px;word-spacing:0px;fill:#000000;fill-opacity:1;stroke:none;stroke-width:1px;stroke-linecap:butt;stroke-linejoin:miter;stroke-opacity:1"
         id="text3381">
        <path
           d="m 154.66857,196.79362 -0.24,2.08 c -5.06667,-0.24 -7.6,-3.81333 -7.6,-10.72 l 0,-18 c -0.8,-0.4 -1.78667,-0.6 -2.96,-0.6 -4.29333,0 -6.44,2.50667 -6.44,7.52 l 0,0.92 5.84,0 0,1.8 -5.84,0 0,18.64 1.73597,-3e-5 -2.8097,7.00794 -2.99911,-7.00793 1.67284,3e-5 0,-18.64 -3,0 0,-1.8 3,0 0,-0.6 c 0,-3.04 0.82667,-5.44 2.48,-7.2 1.65333,-1.76 3.93333,-2.64 6.84,-2.64 1.62667,0 3.25333,0.4 4.88,1.2 l 0,18.48 c 0,1.22667 0.04,2.28 0.12,3.16 0.08,0.88 0.22667,1.74667 0.44,2.6 0.21333,0.82667 0.52,1.50667 0.92,2.04 0.4,0.50667 0.92,0.92 1.56,1.24 0.66667,0.32 1.46667,0.49333 2.4,0.51999 z"
           style="font-style:normal;font-variant:normal;font-weight:normal;font-stretch:normal;font-family:Laksaman;-inkscape-font-specification:Laksaman;fill:#0087f7;fill-opacity:1"
           id="path3400"
           inkscape:connector-curvature="0"
           sodipodi:nodetypes="ccscsscccccscccccccssscsscccc" />
        <path
           d="m 157.40545,187.95362 c 0,-2.98667 0.82667,-5.46667 2.48,-7.44 1.68,-1.97333 3.92,-2.96 6.72,-2.96 3.38667,0 5.96,1.44 7.72,4.32 l 0,-13.84 2.4,0 0,25.4 c 0,2.4 0.0533,4.06667 0.16,5 l -2.2,0 c -0.08,-1.04 -0.12,-2.24 -0.12,-3.6 -1.89333,2.77333 -4.42667,4.16 -7.6,4.16 -2.98667,0 -5.33333,-1.02667 -7.04,-3.08 -1.68,-2.08 -2.52,-4.73333 -2.52,-7.96 z m 9.88,9.04 c 1.97333,0 3.64,-0.64 5,-1.92 1.36,-1.30667 2.04,-2.92 2.04,-4.84 l 0,-3.4 c 0,-2.05333 -0.70667,-3.77333 -2.12,-5.16 -1.38667,-1.41333 -3.10667,-2.12 -5.16,-2.12 -2.32,0 -4.10667,0.78667 -5.36,2.36 -1.25333,1.57333 -1.88,3.61333 -1.88,6.12 0,5.97333 2.49333,8.96 7.48,8.96 z"
           style="font-style:normal;font-variant:normal;font-weight:normal;font-stretch:normal;font-family:Laksaman;-inkscape-font-specification:Laksaman;fill:#cccccc"
           id="path3402"
           inkscape:connector-curvature="0"
           sodipodi:nodetypes="scscccscccscsscsscssss" />
        <path
           d="m 192.38607,179.63362 q -0.24,-0.08 -0.72,-0.08 -2.64,0 -4.48,2.16 -1.8,2.12 -1.8,5.72 l 0,11 -2.4,0 0,-13.76 q 0,-4.52 -0.6,-6.68 l 2.04,0 q 0.64,1.28 0.64,4.08 1.92,-4.52 6.16,-4.52 0.56,0 1.16,0.12 l 0,1.96 z"
           style="font-style:normal;font-variant:normal;font-weight:normal;font-stretch:normal;font-family:Laksaman;-inkscape-font-specification:Laksaman;fill:#cccccc"
           id="path3404"
           inkscape:connector-curvature="0" />
        <path
           d="m 205.79295,177.55362 q 4.44,0 7,3.12 2.56,3.08 2.56,7.88 0,4.52 -2.52,7.48 -2.48,2.96 -6.68,2.96 -5.08,0 -7.72,-4.36 l 0,13.84 -2.4,0 0,-25.4 q 0,-3.76 -0.16,-5.08 l 2.2,0 q 0.12,1.56 0.12,3.72 2.84,-4.16 7.6,-4.16 z m -0.32,2 q -2.96,0 -5,1.92 -2.04,1.92 -2.04,4.8 l 0,3.44 q 0,3.04 2.12,5.16 2.12,2.12 5.16,2.12 3.48,0 5.36,-2.32 1.88,-2.32 1.88,-6.16 0,-4.16 -1.88,-6.56 -1.84,-2.4 -5.6,-2.4 z"
           style="font-style:normal;font-variant:normal;font-weight:normal;font-stretch:normal;font-family:Laksaman;-inkscape-font-specification:Laksaman;fill:#cccccc"
           id="path3406"
           inkscape:connector-curvature="0" />
        <path
           d="m 229.93357,177.55362 q 4.44,0 7,3.12 2.56,3.08 2.56,7.88 0,4.52 -2.52,7.48 -2.48,2.96 -6.68,2.96 -5.08,0 -7.72,-4.36 l 0,13.84 -2.4,0 0,-25.4 q 0,-3.76 -0.16,-5.08 l 2.2,0 q 0.12,1.56 0.12,3.72 2.84,-4.16 7.6,-4.16 z m -0.32,2 q -2.96,0 -5,1.92 -2.04,1.92 -2.04,4.8 l 0,3.44 q 0,3.04 2.12,5.16 2.12,2.12 5.16,2.12 3.48,0 5.36,-2.32 1.88,-2.32 1.88,-6.16 0,-4.16 -1.88,-6.56 -1.84,-2.4 -5.6,-2.4 z"
           style="font-style:normal;font-variant:normal;font-weight:normal;font-stretch:normal;font-family:Laksaman;-inkscape-font-specification:Laksaman;fill:#cccccc"
           id="path3408"
           inkscape:connector-curvature="0" />
        <path
           d="m 253.7142,179.63362 q -0.24,-0.08 -0.72,-0.08 -2.64,0 -4.48,2.16 -1.8,2.12 -1.8,5.72 l 0,11 -2.4,0 0,-13.76 q 0,-4.52 -0.6,-6.68 l 2.04,0 q 0.64,1.28 0.64,4.08 1.92,-4.52 6.16,-4.52 0.56,0 1.16,0.12 l 0,1.96 z"
           style="font-style:normal;font-variant:normal;font-weight:normal;font-stretch:normal;font-family:Laksaman;-inkscape-font-specification:Laksaman;fill:#cccccc"
           id="path3410"
           inkscape:connector-curvature="0" />
      </g>
      <path
         d="m 176.62291,168.07457 1.73597,3e-5 -2.8097,-7.00794 -2.99911,7.00793 1.67284,-3e-5 c 6.33754,-1.1e-4 -5.93263,-1.3e-4 2.4,1e-5 z"
         style="font-style:normal;font-variant:normal;font-weight:normal;font-stretch:normal;font-size:40px;line-height:125%;font-family:Laksaman;-inkscape-font-specification:Laksaman;letter-spacing:0px;word-spacing:0px;fill:#cccccc;fill-opacity:1;stroke:none;stroke-width:1px;stroke-linecap:butt;stroke-linejoin:miter;stroke-opacity:1"
         id="path3400-3"
         inkscape:connector-curvature="0"
         sodipodi:nodetypes="ssccss" />
    </g>
  </g>
</svg>
